<?xml version="1.0" encoding="UTF-8" standalone="no"?>
<!-- Created with Inkscape (http://www.inkscape.org/) -->

<svg
   version="1.1"
   id="svg1"
   width="723.18573"
   height="537.73199"
   viewBox="0 0 723.18573 537.732"
   xmlns="http://www.w3.org/2000/svg"
   xmlns:svg="http://www.w3.org/2000/svg">
  <defs
     id="defs1" />
  <g
     id="g1"
     transform="translate(929.17307,-514.23698)">
    <path
       style="opacity:1;fill:#c9a84c;fill-opacity:1;stroke:none;stroke-width:0;stroke-dasharray:none"
       d="m -216.25701,1031.286 v -5.8376 l -6.0171,-0.6331 c -9.65641,-1.016 -17.55441,-3.4695 -28.13776,-8.7407 -15.30106,-7.6209 -26.9951,-16.54579 -43.55982,-33.24445 -13.11497,-13.2213 -19.50598,-20.9015 -33.18931,-39.8842 -43.01225,-59.6708 -59.72279,-83.3304 -92.56026,-131.0516 -23.70001,-34.4421 -40.37292,-59.4278 -42.5614,-63.7818 -0.96427,-1.9184 -2.58122,-4.5576 -3.59329,-5.8648 -1.08157,-1.3971 -1.84002,-3.9931 -1.84002,-6.2985 0,-3.7266 0.89913,-4.8683 18.06743,-22.9411 9.93709,-10.4607 23.16283,-24.4438 29.39041,-31.0736 29.04291,-30.9186 75.08555,-78.8493 84.81561,-88.2934 36.10209,-35.0413 58.09197,-48.8394 84.25569,-52.8682 10.51574,-1.6192 10.17993,-1.4411 10.17993,-5.4011 v -3.5193 h -81.67467 -81.67465 v 2.4915 c 0,1.3703 -0.0237,2.7953 -0.0534,3.1668 -0.0297,0.3714 2.61586,1.5003 5.87899,2.5087 7.7393,2.3917 15.77232,9.5915 18.92022,16.9577 1.88831,4.4187 2.1561,6.4103 1.72119,12.7989 -0.6332,9.2992 -3.70842,15.9173 -11.06429,23.8112 -2.83683,3.0443 -13.12388,14.7285 -22.86018,25.9651 -39.38858,45.4579 -75.65727,85.2008 -118.72839,130.1013 -14.22078,14.8249 -26.61805,28.5708 -27.54942,30.5466 -1.39268,2.9545 -1.69346,6.6182 -1.69346,20.633 0,18.1546 0.42075,19.5365 4.549,14.9413 7.66056,-8.5268 30.55286,-9.2388 39.99152,-1.2438 1.70084,1.4407 9.6122,12.5363 17.5808,24.657 7.96865,12.1207 17.80842,26.7466 21.86621,32.5019 17.0301,24.1546 19.85902,28.1382 30.78502,43.3516 9.61612,13.3896 26.06431,35.5138 41.12075,55.3107 1.87595,2.4666 6.88255,9.1684 11.12587,14.893 9.66138,13.03406 16.56403,20.58865 25.48369,27.89075 15.28869,12.5163 28.16399,18.9537 46.58108,23.2903 1.089,0.2563 25.03453,0.5183 53.21229,0.5818 l 51.23228,0.1156 z"
       id="path8" />
    <path
       style="opacity:1;fill:#c9a84c;fill-opacity:1;stroke:none;stroke-width:0;stroke-dasharray:none"
       d="m -700.56063,1031.8914 -0.29923,-5.2321 -5.85607,-0.7321 c -7.03697,-0.8799 -19.29768,-4.1766 -25.04329,-6.7338 -5.12368,-2.2804 -17.12311,-11.8005 -20.51323,-16.2749 -3.52815,-4.65639 -10.09875,-19.12105 -12.12017,-26.68155 -1.54332,-5.7719 -1.73898,-14.9786 -2.04365,-96.1407 l -0.33698,-89.7575 2.18603,-2.7976 2.18612,-2.7976 26.31563,0.5136 c 39.15713,0.7641 58.46461,3.9149 74.96916,12.2339 4.97954,2.5099 11.97623,7.1138 15.54824,10.2308 7.32494,6.392 16.22037,17.8004 20.54303,26.3466 1.59407,3.1517 3.56007,5.7304 4.36905,5.7304 1.28533,0 1.47071,-7.8534 1.47071,-62.2869 0,-39.5077 -0.35057,-62.2869 -0.95873,-62.2869 -0.52732,0 -2.69452,2.3545 -4.816,5.2321 -2.12149,2.8777 -7.88506,9.1305 -12.80792,13.8952 -6.91109,6.6889 -10.94597,9.6689 -17.70633,13.0771 -15.20485,7.6655 -16.90025,7.8846 -64.86148,8.3824 l -42.24579,0.4385 -1.60271,-2.4623 c -1.45295,-2.2323 -1.56913,-10.5489 -1.24321,-89.0282 0.26594,-64.0494 0.67416,-87.7519 1.56942,-91.1255 1.67415,-6.3088 6.20529,-11.5457 11.32304,-13.0869 3.07109,-0.9247 16.16698,-1.2561 50.19015,-1.27 39.81654,-0.016 47.35888,0.2204 55.83716,1.7514 30.27538,5.4669 49.28324,18.2275 63.42308,42.5782 7.42055,12.779 11.09777,27.5022 12.13425,48.5837 l 0.55109,11.2117 h 10.59248 10.59248 l 1.0985,-8.7202 c 3.09643,-24.5814 8.78721,-60.2019 13.09531,-81.9695 2.65773,-13.4291 5.324,-27.3315 5.92498,-30.8943 0.60098,-3.5628 1.32231,-7.2627 1.60301,-8.2219 0.4848,-1.6567 -9.03335,-1.744 -190.13057,-1.744 h -190.6409 v 2.9898 c 0,2.7293 0.29001,2.9897 3.32985,2.9897 10.95189,0 24.66002,5.7071 33.72132,14.0392 7.65998,7.0436 14.80634,18.1685 17.80096,27.7111 5.17686,16.497 5.04262,10.933 5.04262,208.8921 0,206.0615 0.58546,188.943 -6.9963,204.5543 -8.2467,16.98045 -26.70657,30.22455 -46.5599,33.40445 l -7.32863,1.1738 v 4.0939 c 0,2.2517 0.29699,4.3928 0.66009,4.7582 0.36299,0.3654 47.38625,0.6644 104.49622,0.6644 h 103.83634 z"
       id="path7" />
  </g>
</svg>
